<svg width="266" height="510" xmlns="http://www.w3.org/2000/svg" xmlns:xlink="http://www.w3.org/1999/xlink" overflow="hidden"><g transform="translate(-428 -27)"><path d="M626.708 30.5343C597.036 35.4432 530.968 55.5057 512.076 79.8367 493.184 104.168 509.195 151.763 513.357 176.521 517.52 201.279 543.99 211.096 537.052 228.384 530.114 245.672 488.275 267.229 471.731 280.248 455.187 293.267 444.727 290.813 437.79 306.5 430.852 322.187 430.318 338.834 430.105 374.371 429.891 409.907 426.903 494.532 436.509 519.717 446.115 544.901 462.338 534.55 487.741 525.479 513.144 516.408 566.084 489.409 588.925 465.292 611.766 441.174 614.221 411.507 624.787 380.773 635.354 350.039 641.758 310.875 652.325 280.888 662.891 250.901 683.704 231.372 688.187 200.852 692.67 170.331 678.901 122.843 679.222 97.7649 679.542 72.6868 699.181 61.5884 690.108 50.3833 681.036 39.1783 656.38 25.6254 626.708 30.5343Z" stroke="#262626" stroke-width="2.66667" stroke-linejoin="round" stroke-miterlimit="10" fill="#262626" fill-rule="evenodd"/></g></svg>