<svg width="267" height="537" xmlns="http://www.w3.org/2000/svg" xmlns:xlink="http://www.w3.org/1999/xlink" overflow="hidden"><g transform="translate(-409 -12)"><path d="M608.708 15.5895C579.036 20.7604 512.968 41.8933 494.076 67.5227 475.184 93.152 491.195 143.287 495.357 169.366 499.52 195.445 525.99 205.786 519.052 223.997 512.114 242.207 470.275 264.914 453.731 278.628 437.187 292.342 426.727 289.756 419.79 306.28 412.852 322.805 412.318 340.34 412.105 377.773 411.891 415.205 408.903 504.346 418.509 530.874 428.115 557.403 444.338 546.499 469.741 536.945 495.144 527.39 548.084 498.95 570.925 473.546 593.766 448.141 596.221 416.891 606.787 384.517 617.354 352.143 623.758 310.889 634.325 279.302 644.891 247.715 665.704 227.144 670.187 194.995 674.67 162.846 660.901 112.824 661.222 86.4075 661.542 59.9912 681.181 48.3007 672.108 36.4977 663.036 24.6947 638.38 10.4187 608.708 15.5895Z" stroke="#262626" stroke-width="2.66667" stroke-linejoin="round" stroke-miterlimit="10" fill="none" fill-rule="evenodd"/></g></svg>